<mxfile host="app.diagrams.net" modified="2024-05-28T21:29:24.033Z" agent="Mozilla/5.0 (Windows NT 10.0; Win64; x64) AppleWebKit/537.36 (KHTML, like Gecko) Chrome/125.0.0.0 Safari/537.36" etag="-thSRGt3MC1n9aiyvHac" version="24.4.9" type="device">
  <diagram id="bc47vRQSer-DN1HRI0ml" name="Page-1">
    <mxGraphModel dx="882" dy="578" grid="1" gridSize="10" guides="1" tooltips="1" connect="1" arrows="1" fold="1" page="1" pageScale="1" pageWidth="850" pageHeight="1100" math="0" shadow="0">
      <root>
        <mxCell id="0" />
        <mxCell id="1" parent="0" />
        <mxCell id="mhBjGU7NQdi-iRvEP8EN-1" value="" style="swimlane;startSize=0;" vertex="1" parent="1">
          <mxGeometry x="40" y="40" width="480" height="120" as="geometry" />
        </mxCell>
        <mxCell id="mhBjGU7NQdi-iRvEP8EN-2" value="Checkout page" style="rounded=1;whiteSpace=wrap;html=1;" vertex="1" parent="mhBjGU7NQdi-iRvEP8EN-1">
          <mxGeometry x="40" y="40" width="80" height="40" as="geometry" />
        </mxCell>
        <mxCell id="mhBjGU7NQdi-iRvEP8EN-18" style="edgeStyle=orthogonalEdgeStyle;rounded=0;orthogonalLoop=1;jettySize=auto;html=1;exitX=1;exitY=0.5;exitDx=0;exitDy=0;" edge="1" parent="mhBjGU7NQdi-iRvEP8EN-1" source="mhBjGU7NQdi-iRvEP8EN-3" target="mhBjGU7NQdi-iRvEP8EN-4">
          <mxGeometry relative="1" as="geometry" />
        </mxCell>
        <mxCell id="mhBjGU7NQdi-iRvEP8EN-3" value="Payment page" style="rounded=1;whiteSpace=wrap;html=1;" vertex="1" parent="mhBjGU7NQdi-iRvEP8EN-1">
          <mxGeometry x="200" y="40" width="80" height="40" as="geometry" />
        </mxCell>
        <mxCell id="mhBjGU7NQdi-iRvEP8EN-4" value="Payment complete page" style="rounded=1;whiteSpace=wrap;html=1;" vertex="1" parent="mhBjGU7NQdi-iRvEP8EN-1">
          <mxGeometry x="360" y="40" width="80" height="40" as="geometry" />
        </mxCell>
        <mxCell id="mhBjGU7NQdi-iRvEP8EN-19" value="Client browser" style="text;html=1;align=center;verticalAlign=middle;whiteSpace=wrap;rounded=0;" vertex="1" parent="mhBjGU7NQdi-iRvEP8EN-1">
          <mxGeometry width="120" height="40" as="geometry" />
        </mxCell>
        <mxCell id="mhBjGU7NQdi-iRvEP8EN-6" value="" style="swimlane;startSize=0;" vertex="1" parent="1">
          <mxGeometry x="40" y="240" width="160" height="200" as="geometry" />
        </mxCell>
        <mxCell id="mhBjGU7NQdi-iRvEP8EN-10" style="edgeStyle=orthogonalEdgeStyle;rounded=0;orthogonalLoop=1;jettySize=auto;html=1;exitX=0.5;exitY=1;exitDx=0;exitDy=0;entryX=0.5;entryY=0;entryDx=0;entryDy=0;" edge="1" parent="mhBjGU7NQdi-iRvEP8EN-6" source="mhBjGU7NQdi-iRvEP8EN-7" target="mhBjGU7NQdi-iRvEP8EN-8">
          <mxGeometry relative="1" as="geometry" />
        </mxCell>
        <mxCell id="mhBjGU7NQdi-iRvEP8EN-7" value="Payment service" style="rounded=1;whiteSpace=wrap;html=1;" vertex="1" parent="mhBjGU7NQdi-iRvEP8EN-6">
          <mxGeometry x="40" y="40" width="80" height="40" as="geometry" />
        </mxCell>
        <mxCell id="mhBjGU7NQdi-iRvEP8EN-8" value="DB" style="rounded=1;whiteSpace=wrap;html=1;" vertex="1" parent="mhBjGU7NQdi-iRvEP8EN-6">
          <mxGeometry x="40" y="120" width="80" height="40" as="geometry" />
        </mxCell>
        <mxCell id="mhBjGU7NQdi-iRvEP8EN-20" value="Payment system" style="text;html=1;align=center;verticalAlign=middle;whiteSpace=wrap;rounded=0;" vertex="1" parent="mhBjGU7NQdi-iRvEP8EN-6">
          <mxGeometry y="160" width="120" height="40" as="geometry" />
        </mxCell>
        <mxCell id="mhBjGU7NQdi-iRvEP8EN-11" style="edgeStyle=orthogonalEdgeStyle;rounded=0;orthogonalLoop=1;jettySize=auto;html=1;exitX=0.5;exitY=1;exitDx=0;exitDy=0;" edge="1" parent="1" source="mhBjGU7NQdi-iRvEP8EN-2" target="mhBjGU7NQdi-iRvEP8EN-7">
          <mxGeometry relative="1" as="geometry" />
        </mxCell>
        <mxCell id="mhBjGU7NQdi-iRvEP8EN-12" style="edgeStyle=orthogonalEdgeStyle;rounded=0;orthogonalLoop=1;jettySize=auto;html=1;exitX=1;exitY=0.25;exitDx=0;exitDy=0;entryX=0.25;entryY=1;entryDx=0;entryDy=0;" edge="1" parent="1" source="mhBjGU7NQdi-iRvEP8EN-7" target="mhBjGU7NQdi-iRvEP8EN-3">
          <mxGeometry relative="1" as="geometry" />
        </mxCell>
        <mxCell id="mhBjGU7NQdi-iRvEP8EN-15" style="edgeStyle=orthogonalEdgeStyle;rounded=0;orthogonalLoop=1;jettySize=auto;html=1;exitX=0.5;exitY=0;exitDx=0;exitDy=0;entryX=0.75;entryY=1;entryDx=0;entryDy=0;" edge="1" parent="1" source="mhBjGU7NQdi-iRvEP8EN-13" target="mhBjGU7NQdi-iRvEP8EN-3">
          <mxGeometry relative="1" as="geometry">
            <Array as="points">
              <mxPoint x="460" y="200" />
              <mxPoint x="300" y="200" />
            </Array>
          </mxGeometry>
        </mxCell>
        <mxCell id="mhBjGU7NQdi-iRvEP8EN-17" style="edgeStyle=orthogonalEdgeStyle;rounded=0;orthogonalLoop=1;jettySize=auto;html=1;exitX=0;exitY=0.5;exitDx=0;exitDy=0;entryX=1;entryY=0.75;entryDx=0;entryDy=0;" edge="1" parent="1" source="mhBjGU7NQdi-iRvEP8EN-13" target="mhBjGU7NQdi-iRvEP8EN-7">
          <mxGeometry relative="1" as="geometry" />
        </mxCell>
        <mxCell id="mhBjGU7NQdi-iRvEP8EN-13" value="PSP" style="rounded=1;whiteSpace=wrap;html=1;" vertex="1" parent="1">
          <mxGeometry x="400" y="280" width="120" height="80" as="geometry" />
        </mxCell>
        <mxCell id="mhBjGU7NQdi-iRvEP8EN-14" style="edgeStyle=orthogonalEdgeStyle;rounded=0;orthogonalLoop=1;jettySize=auto;html=1;exitX=0.75;exitY=1;exitDx=0;exitDy=0;entryX=0.5;entryY=0;entryDx=0;entryDy=0;" edge="1" parent="1" source="mhBjGU7NQdi-iRvEP8EN-3" target="mhBjGU7NQdi-iRvEP8EN-13">
          <mxGeometry relative="1" as="geometry">
            <Array as="points">
              <mxPoint x="300" y="200" />
              <mxPoint x="460" y="200" />
            </Array>
          </mxGeometry>
        </mxCell>
        <mxCell id="mhBjGU7NQdi-iRvEP8EN-16" style="edgeStyle=orthogonalEdgeStyle;rounded=0;orthogonalLoop=1;jettySize=auto;html=1;exitX=1;exitY=0.75;exitDx=0;exitDy=0;entryX=0;entryY=0.5;entryDx=0;entryDy=0;" edge="1" parent="1" source="mhBjGU7NQdi-iRvEP8EN-7" target="mhBjGU7NQdi-iRvEP8EN-13">
          <mxGeometry relative="1" as="geometry" />
        </mxCell>
      </root>
    </mxGraphModel>
  </diagram>
</mxfile>
